PathFileType	4	(X/Y/Z)	/Users/niels/Desktop/University/Third Semester/Perception and Action/Exam/Gymnastics Motion Tracking/Code for Gym Tracking/Analyzed Data/Webcam_Backflip/id15_2_trajectory_Sports2D/id15_2_trajectory_Sports2D_px_person00.trc
DataRate	CameraRate	NumFrames	NumMarkers	Units	OrigDataRate	OrigDataStartFrame	OrigNumFrames
29.714285714285715	29.714285714285715	8	22	m	29.714285714285715	65	105
Frame#	Time	Hip			RHip			RKnee			RAnkle			RBigToe			RSmallToe			RHeel			LHip			LKnee			LAnkle			LBigToe			LSmallToe			LHeel			Neck			Head			Nose			RShoulder			RElbow			RWrist			LShoulder			LElbow			LWrist		
		X1	Y1	Z1	X2	Y2	Z2	X3	Y3	Z3	X4	Y4	Z4	X5	Y5	Z5	X6	Y6	Z6	X7	Y7	Z7	X8	Y8	Z8	X9	Y9	Z9	X10	Y10	Z10	X11	Y11	Z11	X12	Y12	Z12	X13	Y13	Z13	X14	Y14	Z14	X15	Y15	Z15	X16	Y16	Z16	X17	Y17	Z17	X18	Y18	Z18	X19	Y19	Z19	X20	Y20	Z20	X21	Y21	Z21	X22	Y22	Z22
65	2.1875	0.8291873429422443	-0.7015903867178883	0.0	0.8029720730845691	-0.6964693966818959	0.0	0.7408901780971683	-0.8069491783931932	0.0	0.6460322518270004	-0.8959307699042052	0.0	0.6618148380611458	-0.9418680894661786	0.0	0.6487113651140499	-0.938731634334029	0.0	0.6269673635580693	-0.905964458686746	0.0	0.8506606996312025	-0.7029353298796357	0.0	0.9133086145950166	-0.7885863735406794	0.0	0.9009780385543933	-0.9129947578807978	0.0	0.953572289617801	-0.9359067679146897	0.0	0.9499834542445145	-0.9342589316517672	0.0	0.8888910899454301	-0.9337547899451973	0.0	0.8851880759688748	-0.548147232844387	0.0	0.920282609039475	-0.4792396443370021	0.0	0.9115676698403337	-0.5173151444020853	0.0	0.8390490106121907	-0.5583264249697238	0.0	0.7766283228606679	-0.602005927617038	0.0	0.7409545896773454	-0.6700515960679051	0.0	0.9043860615387057	-0.5866128286042741	0.0	0.9088301991863622	-0.6401003308206782	0.0	0.9454301103655943	-0.6602968395585024	0.0
66	2.2211538461538463	0.8391502708730667	-0.6978561086811695	0.0	0.8131314500893662	-0.6931377942621385	0.0	0.7585718669317664	-0.8058518975673259	0.0	0.659268029049915	-0.8904741477317363	0.0	0.668150480425706	-0.939226682030381	0.0	0.6552377953229974	-0.934651026567648	0.0	0.6404111445630182	-0.8978150557862186	0.0	0.859987176048964	-0.6999267885467451	0.0	0.9172922286967514	-0.7885216001697536	0.0	0.9015768580873698	-0.9135568134964381	0.0	0.9533826544619146	-0.9369570707214433	0.0	0.949967662631646	-0.9348188810567517	0.0	0.8897351889963269	-0.9331236661947794	0.0	0.8937923681232713	-0.5438365507405434	0.0	0.9275846409367255	-0.4741291642040533	0.0	0.9192037379449094	-0.5123084205925671	0.0	0.8474295816289983	-0.5547354222129491	0.0	0.7884926457217235	-0.6019546755898163	0.0	0.7569593839600559	-0.670406173989926	0.0	0.9137025186127418	-0.5828815647177863	0.0	0.9172062351641397	-0.6387117003514063	0.0	0.9543949990585661	-0.6626442775396256	0.0
67	2.254807692307692	0.8488723292650076	-0.6929941201117314	0.0	0.8230671416823053	-0.6887018807774797	0.0	0.7793552588311121	-0.8038369197790102	0.0	0.6770462400775202	-0.8849477841731014	0.0	0.6809824074255031	-0.9358248936257152	0.0	0.6680406851886534	-0.9301464049729254	0.0	0.6585705999133126	-0.8899710464022001	0.0	0.8690126048874904	-0.6956950453680412	0.0	0.9195145001957689	-0.7882831193636034	0.0	0.901880882680569	-0.9138779603564567	0.0	0.9525204798879079	-0.9375300549945154	0.0	0.9494498048989322	-0.9347810892029362	0.0	0.8905001201329836	-0.9321989363703548	0.0	0.9016827941126285	-0.5378823068008378	0.0	0.9339505556955936	-0.467383715245839	0.0	0.9261434415928705	-0.5057663464257447	0.0	0.8552421900007682	-0.54947157716433	0.0	0.8000583166866567	-0.6006135279139325	0.0	0.7761096764843638	-0.6702130847450529	0.0	0.9224259304528797	-0.5773984314742475	0.0	0.9249196813779956	-0.6358067810665495	0.0	0.9626879798143497	-0.6637364901767027	0.0
68	2.2884615384615383	0.8578513089923296	-0.6874488173566459	0.0	0.8322599477755406	-0.6834979933321876	0.0	0.8022367031312192	-0.8006697996819319	0.0	0.6992279955236685	-0.8802722772501965	0.0	0.7016295828920059	-0.9321865287804476	0.0	0.6883440581983273	-0.9259965873165356	0.0	0.6812275734187043	-0.883805616871971	0.0	0.8774600935511705	-0.6905961388790084	0.0	0.9203664506024163	-0.7878442561832718	0.0	0.9019601648527074	-0.9138875851872488	0.0	0.9512814022773196	-0.9378042048002826	0.0	0.9485903714072017	-0.9344262143256313	0.0	0.8909941744292366	-0.9310269151012304	0.0	0.9086381870779106	-0.5310547057873799	0.0	0.9391272613249563	-0.4599046112558992	0.0	0.9321701005199647	-0.4985199529793727	0.0	0.8622410448207418	-0.5432964156451685	0.0	0.8110854678573898	-0.5985240384349678	0.0	0.7974950776755237	-0.6694622734036375	0.0	0.9303308822009153	-0.5708845448025094	0.0	0.9323851167277238	-0.6319534747939931	0.0	0.9703326886329627	-0.6639104769577095	0.0
69	2.3221153846153846	0.8658142156720168	-0.6815948761313562	0.0	0.840422311594159	-0.6777767338495432	0.0	0.8259528105960638	-0.7962698038268262	0.0	0.7253834135943269	-0.877400478261286	0.0	0.730144364515406	-0.9291962311635051	0.0	0.7162629373915292	-0.9231765270755278	0.0	0.7078442467289846	-0.8805918183511379	0.0	0.8851657808493568	-0.6849951361728976	0.0	0.9202096927632285	-0.7871814576908942	0.0	0.9018249785024754	-0.9135991944426489	0.0	0.9499717644046738	-0.9379849227107082	0.0	0.9475286515700576	-0.9340940569600169	0.0	0.891018697809254	-0.9297095529090442	0.0	0.9145650685221826	-0.5240630320708034	0.0	0.943044949230244	-0.4524691572470489	0.0	0.9371811098577137	-0.4913107614533327	0.0	0.8682413138373375	-0.5370590164963683	0.0	0.8216696125402155	-0.59638645540568	0.0	0.8201703419738481	-0.6681853862935526	0.0	0.9374188258638014	-0.5640428486096856	0.0	0.9398213075221362	-0.6277618127066076	0.0	0.9774418629755826	-0.6636446321650764	0.0
70	2.355769230769231	0.872697094629806	-0.675828005877954	0.0	0.8475204928140763	-0.6718933734181379	0.0	0.8492374959904055	-0.7909053927513829	0.0	0.7548184889907424	-0.8769658895821297	0.0	0.7653239512682863	-0.9276056461298081	0.0	0.7507670674503818	-0.9223982734381388	0.0	0.7377158926369075	-0.8811023262959687	0.0	0.892001723505679	-0.6793035793916918	0.0	0.9193114978779272	-0.7862814307536948	0.0	0.9014503422904135	-0.9130484069526706	0.0	0.9488278519049019	-0.9382359959574008	0.0	0.9463631758450796	-0.9340147819529689	0.0	0.8905020478986682	-0.9283784451775036	0.0	0.9195101914662486	-0.5174561455970772	0.0	0.9457818734675675	-0.44563587301176594	0.0	0.9411805477696387	-0.4847177317332147	0.0	0.8731577909436872	-0.5315158072262952	0.0	0.832112869430107	-0.5947578039514974	0.0	0.8432929280732893	-0.6664485317557077	0.0	0.9437723839440089	-0.5574650880504723	0.0	0.9472397317889729	-0.6236875485279361	0.0	0.9841015837368604	-0.6633313185316281	0.0
71	2.3894230769230766	0.8785617724836031	-0.6706686300284127	0.0	0.8537935093766973	-0.6665067126111068	0.0	0.8709526345817411	-0.7852855226443739	0.0	0.7865596733859049	-0.8790946099401398	0.0	0.8051515203770934	-0.9275771157043089	0.0	0.7900594574875603	-0.9237216534146022	0.0	0.769976614393442	-0.8853895845774759	0.0	0.8978869378188384	-0.6740442044940788	0.0	0.9179285045513025	-0.7852122881130076	0.0	0.9008250815919856	-0.9122508753296549	0.0	0.9480749968359157	-0.9385417055775773	0.0	0.9452264920319167	-0.9341605638760228	0.0	0.8895535564834023	-0.9271859441919094	0.0	0.9236093708386038	-0.5116044778249522	0.0	0.9475052283339024	-0.4397534762628697	0.0	0.9442675340275469	-0.479102589160862	0.0	0.8770462622248513	-0.5271533576943842	0.0	0.8427075525441252	-0.5938621249946914	0.0	0.8662168216361346	-0.6643866134806632	0.0	0.9494356428037682	-0.5515283819090926	0.0	0.9544854670715955	-0.6198933557639624	0.0	0.9902817299702333	-0.6631464636337225	0.0
72	2.423076923076923	0.8835947483009569	-0.6666786908539816	0.0	0.8597006621847086	-0.6624055626767756	0.0	0.890135877487968	-0.7804027922368144	0.0	0.819330938822225	-0.8834238457138852	0.0	0.8471744198945123	-0.9286651212857906	0.0	0.8319191574199238	-0.926551914346264	0.0	0.8034736631214284	-0.892741555307942	0.0	0.9028803768688187	-0.6697607384142937	0.0	0.9163442592011489	-0.7842079662944362	0.0	0.899994771331196	-0.9112679637211635	0.0	0.9479651462153359	-0.9387011421096666	0.0	0.944366144069151	-0.9343092327157445	0.0	0.8884098334638802	-0.9263126947598058	0.0	0.9270139592522181	-0.5067509847252285	0.0	0.9484268381548054	-0.43499976931319806	0.0	0.9465973169965793	-0.47459402043263843	0.0	0.8801292524450897	-0.5241410714198045	0.0	0.8535939394273389	-0.5936420056700196	0.0	0.8884798286937514	-0.6621718660515339	0.0	0.9544161577952848	-0.5463952284865895	0.0	0.9613259441095667	-0.6163136126489147	0.0	0.9958710831123974	-0.6630602315385592	0.0
